<svg width="32" height="32" viewBox="0 0 32 32" fill="none" xmlns="http://www.w3.org/2000/svg">
<rect width="32" height="32" rx="4" fill="#EA580C"/>
<path d="M11.06 24.02H5.5V21.18H6.62V10.78H5.46V7.86H13.8L15.36 9.44V15.52L13.72 17.2H9.9L9.92 21.18H11.08L11.06 24.02ZM11.98 10.74H9.86V14.28H11.98V10.74ZM16.4742 19.24H19.6142V21.2H23.2942V17.3H17.9942L16.4742 15.82V9.3L17.9542 7.88H24.8342L26.4942 9.52V12.62H23.2542V10.76H19.6342V14.4H24.9542L26.4342 15.88V22.48L24.8942 24H18.2142L16.4742 22.28V19.24Z" fill="white"/>
</svg>
